<svg width="473" height="333" viewBox="0 0 473 333" fill="none" xmlns="http://www.w3.org/2000/svg">
<path opacity="0.3" d="M327.8 8.30078L236.5 166.401L327.8 324.501L419.1 166.401L327.8 8.30078Z" stroke="#FF6952" stroke-width="4" stroke-miterlimit="10"></path>
<path opacity="0.3" d="M236.4 8.30078L145.1 166.401L236.4 324.501L327.7 166.401L236.4 8.30078Z" stroke="#FF6952" stroke-width="4" stroke-miterlimit="10"></path>
<path opacity="0.3" d="M145.1 8.30078L53.8999 166.401L145.1 324.501L236.4 166.401L145.1 8.30078Z" stroke="#FF6952" stroke-width="4" stroke-miterlimit="10"></path>
<path d="M327.8 332.5C332.218 332.5 335.8 328.918 335.8 324.5C335.8 320.082 332.218 316.5 327.8 316.5C323.382 316.5 319.8 320.082 319.8 324.5C319.8 328.918 323.382 332.5 327.8 332.5Z" fill="#FF6952"></path>
<path d="M236.4 332.5C240.818 332.5 244.4 328.918 244.4 324.5C244.4 320.082 240.818 316.5 236.4 316.5C231.982 316.5 228.4 320.082 228.4 324.5C228.4 328.918 231.982 332.5 236.4 332.5Z" fill="#FF6952"></path>
<path d="M145.1 332.5C149.518 332.5 153.1 328.918 153.1 324.5C153.1 320.082 149.518 316.5 145.1 316.5C140.682 316.5 137.1 320.082 137.1 324.5C137.1 328.918 140.682 332.5 145.1 332.5Z" fill="#FF6952"></path>
<path d="M327.8 16C332.218 16 335.8 12.4183 335.8 8C335.8 3.58172 332.218 0 327.8 0C323.382 0 319.8 3.58172 319.8 8C319.8 12.4183 323.382 16 327.8 16Z" fill="#FF6952"></path>
<path d="M236.4 16C240.818 16 244.4 12.4183 244.4 8C244.4 3.58172 240.818 0 236.4 0C231.982 0 228.4 3.58172 228.4 8C228.4 12.4183 231.982 16 236.4 16Z" fill="#FF6952"></path>
<path d="M145.1 16C149.518 16 153.1 12.4183 153.1 8C153.1 3.58172 149.518 0 145.1 0C140.682 0 137.1 3.58172 137.1 8C137.1 12.4183 140.682 16 145.1 16Z" fill="#FF6952"></path>
<path d="M15.5 86.6992C15.5 90.8414 12.1421 94.1992 8 94.1992C3.85786 94.1992 0.5 90.8414 0.5 86.6992C0.5 82.5571 3.85786 79.1992 8 79.1992C12.1421 79.1992 15.5 82.5571 15.5 86.6992Z" fill="#618794" stroke="#618794"></path>
<path d="M472.3 245C472.3 249.142 468.942 252.5 464.8 252.5C460.658 252.5 457.3 249.142 457.3 245C457.3 240.858 460.658 237.5 464.8 237.5C468.942 237.5 472.3 240.858 472.3 245Z" fill="#618794" stroke="#618794"></path>
<path d="M53.7002 174.199C58.1185 174.199 61.7002 170.617 61.7002 166.199C61.7002 161.781 58.1185 158.199 53.7002 158.199C49.2819 158.199 45.7002 161.781 45.7002 166.199C45.7002 170.617 49.2819 174.199 53.7002 174.199Z" fill="#FF6952"></path>
<path d="M145 174.199C149.418 174.199 153 170.617 153 166.199C153 161.781 149.418 158.199 145 158.199C140.582 158.199 137 161.781 137 166.199C137 170.617 140.582 174.199 145 174.199Z" fill="#FF6952"></path>
<path d="M236.3 174.199C240.718 174.199 244.3 170.617 244.3 166.199C244.3 161.781 240.718 158.199 236.3 158.199C231.882 158.199 228.3 161.781 228.3 166.199C228.3 170.617 231.882 174.199 236.3 174.199Z" fill="#FF6952"></path>
<path d="M327.6 174.199C332.018 174.199 335.6 170.617 335.6 166.199C335.6 161.781 332.018 158.199 327.6 158.199C323.182 158.199 319.6 161.781 319.6 166.199C319.6 170.617 323.182 174.199 327.6 174.199Z" fill="#FF6952"></path>
<path d="M418.9 174.199C423.318 174.199 426.9 170.617 426.9 166.199C426.9 161.781 423.318 158.199 418.9 158.199C414.482 158.199 410.9 161.781 410.9 166.199C410.9 170.617 414.482 174.199 418.9 174.199Z" fill="#FF6952"></path>
<path opacity="0.3" d="M8 87H464.8" stroke="#618794" stroke-width="4" stroke-miterlimit="10"></path>
<path opacity="0.3" d="M8 245.301H464.8" stroke="#618794" stroke-width="4" stroke-miterlimit="10"></path>
</svg>